<svg xmlns="http://www.w3.org/2000/svg" width="25.377" height="20.605" viewBox="0 0 25.377 20.605">
  <g id="Group_4125" data-name="Group 4125" transform="translate(1 1.08)">
    <path id="Path_6" data-name="Path 6" d="M23.25,9.4a.485.485,0,0,0-.106-.529L14.412.136a.485.485,0,0,0-.686.686l7.905,7.905H.485a.485.485,0,0,0,0,.97H21.631l-7.9,7.9a.485.485,0,0,0,.674.7l.012-.012,8.733-8.733A.486.486,0,0,0,23.25,9.4Z" transform="translate(0)" fill="#fff" stroke="#fff" stroke-width="2"/>
    <path id="Path_7" data-name="Path 7" d="M.486,18.429A.485.485,0,0,1,.143,17.6l8.39-8.389L.143.822A.485.485,0,0,1,.829.136L9.561,8.869a.485.485,0,0,1,0,.686L.829,18.288A.485.485,0,0,1,.486,18.429Z" transform="translate(13.583 0.001)" fill="#fff" stroke="#fff" stroke-width="2"/>
    <path id="Path_8" data-name="Path 8" d="M20.189.562H.43C.192.562,0,.436,0,.281S.192,0,.43,0H20.189c.237,0,.43.126.43.281S20.426.562,20.189.562Z" transform="translate(2.669 8.931)" fill="#fff" stroke="#fff" stroke-width="2"/>
  </g>
</svg>
